# xmcd
#
# Track frame offsets:
#	150
#	11327
#	32576
#	50278
#	61643
#	72680
#	90217
#	104271
#	121993
#	140482
#	157336
#	172097
#	188979
#	207393
#	225146
#	242395
#	256837
#	274435
#	292040
#	302219
#
# Disc length: 4210 seconds
#
# Revision: 0
# Processed by: cddbd v1.5.2PL0 Copyright (c) Steve Scherf et al.
# Submitted via: audiograbber 1.83.01
#
DISCID=18107014
DTITLE=—борник - Vita Italia ~ cd 1 ~ les grands tubes
DYEAR=2007
DGENRE=
TTITLE0=Paolo Conte ~ Via Con Me
TTITLE1=Drupi ~ Vado Via
TTITLE2=Toto Cutugno ~ L'italiano
TTITLE3=Domenico Modugno ~ (volare) Nel Blu Dipinto Di Blu
TTITLE4=Robertino ~ Un Bacio Piccolissimo
TTITLE5=Ivan Graziani ~ Maledette Malelingue
TTITLE6=Bobby Solo ~ Una Lacrima Sul Viso
TTITLE7=Irene Fargo ~ Come Una Turandot
TTITLE8=Sandro Giacobbe ~ Il Giardino Proibito
TTITLE9=Pino Daniele ~ Je Sto'Vicino A Te
TTITLE10=Carlotta ~ Frena
TTITLE11=Meccano ~ Baci Da Roma
TTITLE12=Paloma Palma ~ Una Storia Importante
TTITLE13=Nicola Di Bari ~ La Piu' Bella Del Mondo
TTITLE14=Pino Donaggio ~ L'ultimo Romantico
TTITLE15=Johny Dorelli ~ Una Lunga Storia D'Amore
TTITLE16=Mina ~ Le Mille Bolle Blu
TTITLE17=I Santo California ~ Tornero
TTITLE18=Adriano Celentano ~ 24.000 Baci
TTITLE19=Ricci and Poveri ~ Sara Perche Ti Amo
EXTD=
EXTT0=
EXTT1=
EXTT2=
EXTT3=
EXTT4=
EXTT5=
EXTT6=
EXTT7=
EXTT8=
EXTT9=
EXTT10=
EXTT11=
EXTT12=
EXTT13=
EXTT14=
EXTT15=
EXTT16=
EXTT17=
EXTT18=
EXTT19=
PLAYORDER=
